<?xml version="1.0" encoding="UTF-8" standalone="no"?>
<!-- Created with Inkscape (http://www.inkscape.org/) -->

<svg
   width="79.375mm"
   height="79.375061mm"
   viewBox="0 0 79.375 79.375061"
   version="1.1"
   id="svg5"
   inkscape:version="1.1.2 (0a00cf5339, 2022-02-04)"
   sodipodi:docname="dessin.svg"
   xmlns:inkscape="http://www.inkscape.org/namespaces/inkscape"
   xmlns:sodipodi="http://sodipodi.sourceforge.net/DTD/sodipodi-0.dtd"
   xmlns="http://www.w3.org/2000/svg"
   xmlns:svg="http://www.w3.org/2000/svg">
  <sodipodi:namedview
     id="namedview7"
     pagecolor="#ffffff"
     bordercolor="#666666"
     borderopacity="1.0"
     inkscape:pageshadow="2"
     inkscape:pageopacity="0.0"
     inkscape:pagecheckerboard="0"
     inkscape:document-units="mm"
     showgrid="false"
     inkscape:zoom="0.60016199"
     inkscape:cx="197.44669"
     inkscape:cy="431.55015"
     inkscape:window-width="1920"
     inkscape:window-height="1051"
     inkscape:window-x="0"
     inkscape:window-y="0"
     inkscape:window-maximized="1"
     inkscape:current-layer="layer1" />
  <defs
     id="defs2" />
  <g
     inkscape:label="Calque 1"
     inkscape:groupmode="layer"
     id="layer1"
     transform="translate(-18.628809,-80.784972)">
    <path
       style="fill:#ae2f29;stroke-width:0.264583"
       d="M 18.628809,120.47247 V 80.784972 h 39.687502 39.6875 v 6.82106 6.82106 l -2.60947,0.31206 c -3.36648,0.40258 -7.03799,1.59197 -9.65503,3.12775 -2.54156,1.49148 -6.63648,5.481128 -7.54827,7.354218 l -0.62557,1.2851 -1.4006,-2.67503 c -2.41309,-4.608808 -4.00357,-6.401908 -6.85582,-7.729168 -2.50844,-1.16728 -4.44035,-1.55871 -7.69302,-1.55871 -4.54888,0 -6.85629,0.92561 -9.04842,3.62974 -3.15016,3.885928 -5.527502,5.901798 -10.228612,8.673378 -3.60603,2.12597 -5.14243,3.63852 -5.99281,5.89978 -1.1522,3.06385 -0.56932,5.75174 1.85692,8.5629 1.36782,1.58482 2.91288,2.33911 4.78476,2.33588 1.88068,-0.003 3.64085,-0.99858 5.605852,-3.16997 l 1.46175,-1.61529 0.62469,1.00481 c 0.93229,1.49957 0.87074,4.13427 -0.1487,6.36574 -1.33678,2.92611 -3.780232,4.54759 -7.185112,4.76805 -2.66163,0.17233 -4.31411,-0.37614 -6.57464,-2.18214 -1.96755,-1.57193 -2.70279,-1.77047 -3.45958,-0.93421 -0.45655,0.50447 -0.47131,1.30429 -0.30272,16.40416 l 0.17723,15.87383 h -7.27891 -7.27892 z m 17.4625,25.76857 c 0,-11.03643 0.0685,-13.88877 0.33073,-13.77329 3.26049,1.43585 3.81944,1.58121 6.15156,1.5998 4.95093,0.0395 8.750952,-2.3022 10.783102,-6.64481 0.65894,-1.40811 0.85025,-2.21326 0.94221,-3.96532 0.13841,-2.63699 -0.22522,-4.12022 -1.4232,-5.8052 l -0.87225,-1.22685 1.21841,-1.41128 c 0.81052,-0.93882 2.3493,-2.1297 4.59652,-3.5573 3.37336,-2.143 5.80942,-4.32903 6.31963,-5.67101 0.70191,-1.84615 -0.0215,-4.77507 -1.45853,-5.905458 -1.41999,-1.11696 -4.57208,-0.44191 -5.43106,1.163118 -0.43176,0.80675 -0.18768,2.89755 0.41614,3.56477 0.55323,0.61131 1.77427,0.68181 2.23313,0.12892 0.17779,-0.21423 0.3412,-0.82959 0.36312,-1.36746 0.0553,-1.35584 0.60087,-1.41781 0.99191,-0.11267 0.28608,0.95488 0.26608,1.13613 -0.17982,1.62884 -0.87202,0.96358 -1.37289,1.10191 -2.77327,0.76597 -1.62474,-0.38977 -2.70665,-1.55279 -3.14524,-3.38101 -0.27061,-1.12806 -0.25475,-1.4481 0.1064,-2.14649 2.1088,-4.077978 12.38563,-3.307378 15.82634,1.18672 2.34125,3.05803 4.95625,9.32024 4.95625,11.86885 0,1.75597 1.25843,2.45833 2.8915,1.61384 0.82252,-0.42534 1.07517,-0.88088 1.08131,-1.94966 0.007,-1.2163 1.03121,-4.84704 1.89749,-6.72647 2.02543,-4.39422 7.50114,-7.642828 14.06845,-8.346468 l 2.02167,-0.2166 v 3.607068 3.60707 l -1.63693,0.30441 c -1.89928,0.35321 -3.6342,1.15382 -6.36885,2.93901 -4.0534,2.64609 -5.98057,6.52109 -5.69516,11.45139 0.0971,1.67741 0.29257,2.40225 1.07257,3.9775 1.0614,2.14357 3.13191,4.43826 4.74906,5.26327 1.25564,0.64058 2.5076,0.4715 2.8532,-0.38533 0.19081,-0.47307 0.23293,-0.39567 0.24684,0.45359 l 0.0168,1.02399 -1.57892,-0.11421 c -3.25161,-0.2352 -6.15422,-3.21064 -8.33912,-8.54835 -0.36144,-0.883 -0.47485,-0.98461 -0.68458,-0.61337 -0.52076,0.92179 1.69981,5.30118 3.70056,7.29824 1.57897,1.57606 3.13607,2.46508 4.89038,2.79213 1.54942,0.28886 1.66082,0.35536 1.46761,0.87608 -0.18887,0.509 -0.31981,0.54142 -1.35386,0.33525 -2.87422,-0.57308 -3.41454,-0.59937 -3.24514,-0.15792 0.0881,0.22961 0.5372,0.49405 0.99799,0.58767 2.3169,0.47068 2.80036,0.66941 2.64072,1.08543 -0.11366,0.2962 -0.37283,0.37241 -0.90471,0.26603 -0.91089,-0.18218 -1.26224,0.26638 -0.59399,0.75833 0.83927,0.61786 -0.18139,0.75872 -2.04264,0.28188 -3.18617,-0.81625 -7.42086,-4.10463 -8.87863,-6.89453 -0.814,-1.55784 -1.15841,-1.81458 -1.15444,-0.86053 0.0104,2.48397 5.56866,7.4657 9.58329,8.5892 l 1.51599,0.42426 -0.7922,0.58446 -0.7922,0.58447 -1.78714,-0.95708 c -2.96167,-1.58608 -4.92345,-3.07708 -6.10133,-4.63718 -0.61428,-0.8136 -1.28787,-1.47928 -1.49687,-1.47928 -0.209,0 -0.32,-0.15634 -0.24668,-0.34742 0.0733,-0.19108 -0.109,-0.56672 -0.40517,-0.83476 -0.29618,-0.26803 -0.5385,-0.707 -0.5385,-0.97549 0,-0.26849 -0.11136,-0.48816 -0.24746,-0.48816 -0.1361,0 -0.39815,-0.41672 -0.58232,-0.92604 -0.18417,-0.50932 -0.43001,-0.92604 -0.54629,-0.92604 -0.36641,0 -0.22921,0.97878 0.18544,1.32291 0.21828,0.18116 0.39688,0.45339 0.39688,0.60495 0,0.46012 0.88136,2.30547 1.10112,2.30547 0.11304,0 0.61141,0.62508 1.10749,1.38906 0.49608,0.76399 1.36294,1.81976 1.92636,2.34616 1.422,1.32856 4.40585,3.30465 5.57019,3.68891 0.8906,0.29393 0.9313,0.34933 0.49236,0.67029 -0.63196,0.4621 -1.62687,0.0486 -4.52899,-1.88242 -1.95086,-1.29806 -5.66853,-4.8666 -5.66853,-5.44115 0,-0.12269 -0.23813,-0.35051 -0.52917,-0.50627 -0.44995,-0.2408 -0.52917,-0.20121 -0.52917,0.26446 0,0.89084 4.3269,5.18074 6.94151,6.88216 1.27122,0.82722 2.23364,1.58171 2.13872,1.67663 -0.3863,0.3863 -1.37314,0.11117 -3.1642,-0.88219 -2.31871,-1.28599 -4.5032,-3.24841 -6.08757,-5.46872 -1.17518,-1.64686 -1.68054,-2.04135 -1.68054,-1.31186 0,0.69759 2.15865,3.59561 3.7529,5.03833 0.88028,0.79661 2.35319,1.83863 3.27314,2.3156 0.99743,0.51714 1.54947,0.94333 1.36753,1.05577 -0.45751,0.28276 -3.56338,-1.45238 -5.54718,-3.09901 -1.65856,-1.37667 -2.57196,-2.56802 -4.69251,-6.12044 -1.3251,-2.21985 -1.40014,-1.10118 -0.0985,1.46878 1.26753,2.50265 3.78643,5.23568 6.41037,6.95529 2.22634,1.45904 1.97614,1.67968 -0.50103,0.44183 -2.78251,-1.39044 -5.84602,-4.76711 -8.06596,-8.89046 -0.41266,-0.76649 -0.92893,-1.5404 -1.14726,-1.71979 -0.73206,-0.6015 -0.11642,1.37178 1.03005,3.30158 2.15692,3.63062 4.42485,6.04859 7.56414,8.0645 0.44141,0.28346 0.41093,0.31646 -0.30295,0.32798 -0.59877,0.01 -1.3462,-0.43635 -3.04271,-1.81563 -2.71216,-2.20502 -4.14709,-3.9256 -6.12193,-7.34066 -2.14992,-3.71779 -2.85492,-3.68369 -0.96078,0.0465 1.45128,2.85805 4.16296,6.25722 6.49463,8.1412 l 0.98495,0.79584 -0.78468,-0.18841 c -1.08634,-0.26084 -2.98899,-1.70973 -4.76679,-3.62997 -1.0662,-1.15162 -1.89309,-2.44665 -2.86811,-4.49192 -1.94351,-4.07683 -2.66267,-3.66252 -0.83116,0.47884 0.79213,1.79115 2.00578,3.55605 3.68191,5.35429 l 1.3355,1.43278 -1.41663,-0.76223 c -2.34933,-1.26409 -3.62815,-2.58163 -4.69059,-4.8326 -0.52782,-1.11828 -1.06655,-2.21183 -1.19717,-2.43011 -0.13062,-0.21828 -0.34387,-0.6399 -0.47388,-0.93692 -0.3664,-0.83705 -0.98341,-1.226 -1.79687,-1.13272 l -0.74361,0.0853 -0.13229,3.04271 c -0.12612,2.90088 -0.17928,3.13062 -1.14024,4.92857 -1.97992,3.70439 -5.25312,6.97096 -8.05001,8.03369 -0.70769,0.2689 -2.054792,0.628 -2.993552,0.79799 -0.93875,0.16999 -1.85565,0.43227 -2.03755,0.58285 -0.24871,0.20588 -0.33073,1.93907 -0.33073,6.98825 v 6.71448 h -4.23334 -4.23333 z m 53.445832,-12.82875 c 0,-0.15915 -0.26735,-0.35927 -0.59412,-0.44472 -0.32676,-0.0855 -1.48762,-0.60348 -2.57968,-1.15117 -2.05698,-1.03161 -4.06445,-3.01843 -4.979,-4.92778 -0.40391,-0.84328 -1.11003,-1.18138 -1.10513,-0.52917 0.005,0.72439 1.60345,3.053 3.00106,4.37312 0.8132,0.7681 2.22624,1.75027 3.1401,2.1826 1.68382,0.79658 3.11677,1.02513 3.11677,0.49712 z m -1.61314,-2.78426 c -0.16705,-0.20128 -0.47806,-0.36597 -0.69113,-0.36597 -0.54572,0 -3.0664,-2.64641 -3.6082,-3.78816 -0.53899,-1.13584 -0.91326,-1.42146 -1.12831,-0.86105 -0.34051,0.88735 2.28111,4.3335 3.90962,5.13921 1.17372,0.58072 2.0439,0.50962 1.51802,-0.12403 z m -14.67349,-0.87126 c 0.22833,-0.36944 -0.12912,-1.08221 -0.54272,-1.08221 -0.20271,0 -0.36856,0.21828 -0.36856,0.48506 0,0.75338 0.57988,1.13336 0.91128,0.59715 z m 1.49973,-1.68745 c -0.21607,-0.21608 -0.29435,-0.18647 -0.29435,0.11135 0,0.22313 0.0868,0.49251 0.19293,0.59862 0.10611,0.1061 0.23856,0.056 0.29435,-0.11135 0.0558,-0.16735 -0.031,-0.43673 -0.19293,-0.59862 z m -13.58966,-0.75692 c 0.977,0.0127 1.12448,-0.0596 1.12448,-0.55134 0,-0.8088 -1.02127,-1.79067 -1.86252,-1.79067 -1.06933,0 -2.10623,0.93603 -2.10623,1.90132 0,0.77015 0.0368,0.79648 0.8599,0.61533 0.47294,-0.10408 1.36591,-0.18267 1.98437,-0.17464 z m 10.61181,-0.20655 c 1.40016,-0.2705 2.23584,-1.04623 2.31199,-2.14613 0.0313,-0.45166 -0.003,-0.76146 -0.0759,-0.68844 -0.16907,0.16908 -2.79555,-2.76259 -3.87741,-4.32797 -0.45258,-0.65485 -1.30174,-2.07335 -1.88704,-3.15223 -0.58529,-1.07889 -1.25549,-2.07956 -1.48933,-2.22373 -0.54459,-0.33574 -1.36717,0.26451 -2.61933,1.91139 -0.89795,1.18101 -0.92426,1.2836 -0.92426,3.60449 0,2.03028 0.0995,2.58208 0.66265,3.67595 1.43102,2.77954 4.37582,4.02725 7.89864,3.34667 z m -2.17357,-3.2231 c -1.03961,-0.28151 -1.75085,-0.96945 -2.29482,-2.21965 -0.54389,-1.25 -0.89853,-3.04617 -0.59916,-3.03453 0.11574,0.004 0.62715,0.56222 1.13647,1.23937 0.50932,0.67715 1.49099,1.85037 2.18148,2.60714 1.02741,1.12604 1.17158,1.39743 0.79375,1.49417 -0.25393,0.065 -0.8019,0.0261 -1.21772,-0.0865 z m 10.50137,1.07052 c 0.21044,-0.30045 0.32388,-0.77092 0.25209,-1.04547 -0.10948,-0.41865 -0.34744,-0.48832 -1.47476,-0.43181 -1.56332,0.0784 -1.82968,0.45984 -0.96428,1.38102 0.73884,0.78645 1.67467,0.82764 2.18695,0.0963 z m 2.2932,-0.79225 c 0,-1.0561 -0.33912,-1.39043 -0.63315,-0.6242 -0.21049,0.54854 -0.20558,1.56497 0.009,1.77916 0.35268,0.35267 0.62456,-0.15011 0.62456,-1.15496 z m -21.65413,0.1156 c 1.21595,-0.33304 0.51922,-2.21665 -0.81991,-2.21665 -1.13664,0 -1.57797,0.24239 -2.02884,1.11428 -0.63673,1.23129 -0.3357,1.59561 1.15144,1.39353 0.6923,-0.0941 1.4561,-0.22509 1.69731,-0.29116 z m 20.77153,-2.33115 c -0.0875,-0.22807 -0.28192,-0.41466 -0.43201,-0.41466 -0.3044,0 -0.37394,0.86908 -0.0921,1.15093 0.29046,0.29046 0.69826,-0.28243 0.5241,-0.73627 z m -2.34215,-0.40395 c 0.65316,-0.88345 0.73462,-1.32628 0.24819,-1.34925 -0.1819,-0.009 -0.80698,-0.054 -1.38906,-0.10085 -1.68154,-0.13544 -2.18725,0.57326 -1.18032,1.65408 0.75556,0.811 1.62743,0.73438 2.32119,-0.20398 z m -20.73862,-0.13424 c 0.65906,-0.53875 0.72356,-0.69585 0.43063,-1.04882 -0.1895,-0.22833 -0.68489,-0.41515 -1.10086,-0.41515 -0.58712,0 -0.79365,0.14874 -0.92319,0.66489 -0.15276,0.60865 0.23502,1.46617 0.65221,1.44226 0.0913,-0.005 0.51487,-0.29467 0.94121,-0.64318 z m 20.46492,-2.6696 c 1.18799,-0.8321 0.35314,-2.32972 -1.44881,-2.59901 -0.87398,-0.1306 -1.16275,-0.0732 -1.35447,0.2694 -0.45294,0.80936 0.12606,2.08151 1.13317,2.48973 0.78695,0.31898 1.01767,0.29686 1.67011,-0.16012 z m -3.90988,23.80988 c -1.7541,-0.37986 -4.36628,-1.54683 -5.55625,-2.48221 -0.59486,-0.4676 -0.48404,-0.45582 1.10062,0.11701 6.30506,2.27919 14.58417,0.81202 19.19446,-3.40153 2.66644,-2.43697 4.29627,-5.47009 4.30536,-8.01226 0.009,-2.61944 -0.79341,-4.75348 -2.37364,-6.30994 -1.21426,-1.19601 -1.29758,-1.35164 -0.88514,-1.65323 0.67276,-0.49193 0.78525,-0.44588 2.244,0.91861 2.82561,2.64303 3.67027,6.11708 2.55833,10.52242 -0.37994,1.50528 -2.37937,4.39761 -4.4731,6.47068 -1.46724,1.45276 -2.16904,1.92369 -3.8607,2.59065 -4.05923,1.60044 -8.50944,2.05068 -12.25394,1.2398 z m -35.966112,-22.71911 -1.41992,-1.43777 0.15768,-1.68855 c 0.21056,-2.25477 1.05185,-4.41193 2.10427,-5.39557 0.82952,-0.7753 2.41611,-1.94659 2.63679,-1.94659 0.0589,0 0.11586,0.58311 0.12661,1.29579 0.0199,1.31943 0.66974,2.80206 1.34104,3.05967 0.79118,0.3036 3.92974,-1.87097 4.188522,-2.90205 0.10127,-0.40348 -0.0366,-0.87735 -0.397602,-1.3663 -0.30395,-0.41171 -0.66102,-1.12734 -0.79349,-1.59028 -0.26931,-0.94123 -0.0743,-1.29927 1.10579,-2.0304 0.402892,-0.24961 1.548422,-1.2235 2.545612,-2.1642 l 1.81308,-1.71037 0.1692,1.27549 c 0.31684,2.38844 2.35655,4.63347 4.74376,5.22125 l 0.74376,0.18313 -0.83823,0.50976 -0.83823,0.50976 -1.19769,-0.93312 c -0.65874,-0.51321 -1.30084,-0.86937 -1.4269,-0.79146 -0.46716,0.28872 -0.20333,0.90224 0.69684,1.62049 1.66944,1.33205 0.88472,1.6233 -0.89673,0.33282 -0.60963,-0.44162 -1.22281,-0.73225 -1.36261,-0.64584 -0.50646,0.31301 -0.23496,0.9272 0.66858,1.51249 0.93874,0.6081 1.10059,0.85754 0.71218,1.09759 -0.19508,0.12056 -0.9103,-0.27121 -2.22298,-1.21768 -0.36515,-0.26329 -0.52293,-0.25961 -0.79375,0.0185 -0.27594,0.28336 -0.15581,0.50606 0.65418,1.21272 0.5457,0.47609 0.99218,0.94229 0.99218,1.03601 0,0.34816 -0.51148,0.15112 -1.27466,-0.49106 -0.43236,-0.3638 -0.97727,-0.66145 -1.21093,-0.66145 -0.71422,0 -0.47507,0.7138 0.51167,1.52716 0.81888,0.67499 0.88542,0.81433 0.52979,1.10947 -0.33862,0.28104 -0.55887,0.22147 -1.31571,-0.3558 -0.49996,-0.38133 -1.03602,-0.69333 -1.19125,-0.69333 -0.561282,0 -0.265512,1.02639 0.44488,1.54387 0.39992,0.29132 0.65299,0.6038 0.56239,0.6944 -0.0906,0.0906 -0.52429,-0.13782 -0.96375,-0.5076 -0.439462,-0.36979 -0.930662,-0.67233 -1.091562,-0.67233 -0.59407,0 -0.26775,1.06081 0.50122,1.62933 1.311722,0.9698 0.895502,1.12444 -0.66146,0.24574 l -1.45521,-0.82126 v 0.65582 c 0,0.48779 0.27063,0.81036 1.0563,1.25903 0.58096,0.33176 1.05721,0.68956 1.05833,0.7951 0.003,0.28318 -1.28221,-0.25535 -2.04916,-0.85864 -0.82963,-0.65259 -1.1238,-0.66194 -1.1238,-0.0357 0,0.54147 0.52427,1.07262 1.71979,1.74235 l 0.79375,0.44466 -0.92171,-0.15271 c -0.50695,-0.084 -1.35719,-0.44089 -1.88944,-0.79312 -0.53224,-0.35222 -1.02726,-0.58087 -1.10003,-0.5081 -0.31576,0.31577 0.21621,1.25394 0.97252,1.71512 0.45718,0.27878 0.63931,0.50168 0.41037,0.50223 -0.22639,5.5e-4 -0.81506,-0.29667 -1.30817,-0.66047 -0.49311,-0.3638 -0.99249,-0.66146 -1.10974,-0.66146 -0.37061,0 -0.23048,0.97919 0.19009,1.32823 0.72509,0.60177 0.17624,0.59812 -0.80014,-0.005 -1.09601,-0.67737 -1.40625,-0.55141 -0.97469,0.39575 0.46389,1.01814 0.0323,0.79824 -1.52163,-0.77519 z m 4.90588,-7.97658 c -0.2236,-0.58267 -0.19379,-2.83128 0.0419,-3.15947 0.31577,-0.43973 1.68285,-1.23945 1.84374,-1.07856 0.147,0.147 1.13347,2.92473 1.0434,2.93803 -0.0258,0.004 -0.60217,0.39204 -1.2808,0.86272 -1.42566,0.98881 -1.43558,0.99144 -1.64823,0.43728 z"
       id="path259" />
  </g>
</svg>
